<svg id="Layer_1" data-name="Layer 1" xmlns="http://www.w3.org/2000/svg" viewBox="0 0 163.3 191.25"><defs><style>.cls-1{fill:#f2da2c;}.cls-2{fill:#1a2b57;}.cls-3{fill:#0478a7;}.cls-4{fill:#fff;}.cls-5{fill:#231f20;}</style></defs><title>finalLogo</title><path class="cls-1" d="M299.94,301.74c-31.64,12.77-54.46,18.23-66.5,20.48-5.64,1-9.59,5.68-9.34,10.9l3,61.39c3.51,62.87,48.48,87.78,73.26,96.78a12.85,12.85,0,0,0,5.43.73V300.85A12.56,12.56,0,0,0,299.94,301.74Z" transform="translate(-224.09 -300.81)"/><path class="cls-1" d="M378,322.22c-12.05-2.25-34.87-7.71-66.5-20.48a12.58,12.58,0,0,0-5.8-.89V492a12.8,12.8,0,0,0,5.42-.73c24.79-9,69.75-33.91,73.27-96.78l2.95-61.39C387.63,327.9,383.68,323.27,378,322.22Z" transform="translate(-224.09 -300.81)"/><path class="cls-2" d="M232.41,395.81c2.6,39.82,23.13,63.12,43.16,76.48C273.26,425,243.89,402.72,232.41,395.81Z" transform="translate(-224.09 -300.81)"/><path class="cls-3" d="M300.33,308.09c-29.51,11.91-50.8,17-62,19.1-5.26,1-8.95,5.3-8.71,10.17l2.75,57.28c0,.39,0,.78.08,1.17,11.48,6.91,40.85,29.14,43.16,76.48a118.19,118.19,0,0,0,25.11,12.63,11.91,11.91,0,0,0,5.06.68V307.26A11.68,11.68,0,0,0,300.33,308.09Z" transform="translate(-224.09 -300.81)"/><path class="cls-3" d="M379.07,395.81c-2.6,39.82-23.13,63.12-43.17,76.48C338.22,425,367.59,402.72,379.07,395.81Z" transform="translate(-224.09 -300.81)"/><path class="cls-2" d="M311.15,308.09c29.51,11.91,50.8,17,62,19.1,5.26,1,8.94,5.3,8.71,10.17l-2.75,57.28c0,.39-.06.78-.08,1.17-11.48,6.91-40.85,29.14-43.17,76.48a117.91,117.91,0,0,1-25.1,12.63,11.91,11.91,0,0,1-5.06.68V307.26A11.68,11.68,0,0,1,311.15,308.09Z" transform="translate(-224.09 -300.81)"/><circle class="cls-4" cx="51.48" cy="65.73" r="17.66"/><circle class="cls-5" cx="51.48" cy="65.73" r="10.53"/><path class="cls-1" d="M304.52,415.61l-12.33-21.36a1.41,1.41,0,0,1,1.22-2.11h24.66a1.41,1.41,0,0,1,1.22,2.11L307,415.61A1.41,1.41,0,0,1,304.52,415.61Z" transform="translate(-224.09 -300.81)"/><circle class="cls-4" cx="111.82" cy="65.73" r="17.66"/><circle class="cls-5" cx="111.82" cy="65.73" r="10.53"/></svg>